<svg width="24" height="24" viewBox="0 0 24 24" fill="none" xmlns="http://www.w3.org/2000/svg">
<path d="M4 21.0003H20M5.666 13.1873C5.23943 13.6145 4.99989 14.1936 5 14.7973V18.0003H8.223C8.827 18.0003 9.406 17.7603 9.833 17.3323L19.333 7.82734C19.7597 7.40019 19.9994 6.82111 19.9994 6.21734C19.9994 5.61356 19.7597 5.03448 19.333 4.60734L18.395 3.66734C18.1835 3.45569 17.9323 3.28781 17.6558 3.1733C17.3794 3.0588 17.083 2.99991 16.7838 3C16.4846 3.00009 16.1883 3.05917 15.9119 3.17385C15.6355 3.28852 15.3844 3.45656 15.173 3.66834L5.666 13.1873Z" stroke="#8E8EA1" stroke-width="1.5" stroke-linecap="round" stroke-linejoin="round"/>
</svg>
