<svg width="30" height="24" viewBox="0 0 30 24" fill="none" xmlns="http://www.w3.org/2000/svg">
<path d="M1.33333 1.69333L3.04 0L25.3333 22.2933L23.64 24L19.5333 19.8933C18 20.4 16.3733 20.6667 14.6667 20.6667C8 20.6667 2.30667 16.52 0 10.6667C0.92 8.32 2.38667 6.25333 4.25333 4.61333L1.33333 1.69333ZM14.6667 6.66667C15.7275 6.66667 16.7449 7.08809 17.4951 7.83824C18.2452 8.58838 18.6667 9.6058 18.6667 10.6667C18.6673 11.1208 18.5907 11.5716 18.44 12L13.3333 6.89333C13.7617 6.74264 14.2126 6.66599 14.6667 6.66667ZM14.6667 0.666667C21.3333 0.666667 27.0267 4.81333 29.3333 10.6667C28.2445 13.4306 26.3954 15.8298 24 17.5867L22.1067 15.68C23.9506 14.4046 25.4377 12.6788 26.4267 10.6667C25.3489 8.46649 23.6754 6.61284 21.5965 5.31647C19.5176 4.0201 17.1167 3.33302 14.6667 3.33333C13.2133 3.33333 11.7867 3.57333 10.4533 4L8.4 1.96C10.32 1.13333 12.44 0.666667 14.6667 0.666667ZM2.90667 10.6667C3.98446 12.8668 5.65794 14.7205 7.73685 16.0169C9.81575 17.3132 12.2167 18.0003 14.6667 18C15.5867 18 16.4933 17.9067 17.3333 17.72L14.2933 14.6667C13.3656 14.5672 12.4998 14.1532 11.84 13.4934C11.1802 12.8336 10.7661 11.9678 10.6667 11.04L6.13333 6.49333C4.81333 7.62667 3.70667 9.04 2.90667 10.6667Z" fill="black"/>
</svg>
