<svg width="29" height="29" viewBox="0 0 29 29" fill="none" xmlns="http://www.w3.org/2000/svg">
<path d="M13.125 21.375H15.875V13.125H13.125V21.375ZM14.5 10.375C14.8896 10.375 15.2164 10.243 15.4804 9.979C15.7444 9.715 15.8759 9.38867 15.875 9C15.8741 8.61133 15.7421 8.285 15.479 8.021C15.2159 7.757 14.8896 7.625 14.5 7.625C14.1104 7.625 13.7841 7.757 13.521 8.021C13.2579 8.285 13.1259 8.61133 13.125 9C13.1241 9.38867 13.2561 9.71546 13.521 9.98038C13.7859 10.2453 14.1123 10.3768 14.5 10.375ZM14.5 28.25C12.5979 28.25 10.8104 27.8888 9.1375 27.1665C7.46459 26.4442 6.00938 25.4647 4.77188 24.2281C3.53438 22.9915 2.55492 21.5363 1.8335 19.8625C1.11209 18.1887 0.750918 16.4012 0.750002 14.5C0.749085 12.5988 1.11025 10.8113 1.8335 9.1375C2.55675 7.46367 3.53621 6.00846 4.77188 4.77188C6.00754 3.53529 7.46275 2.55583 9.1375 1.8335C10.8123 1.11117 12.5998 0.75 14.5 0.75C16.4003 0.75 18.1877 1.11117 19.8625 1.8335C21.5373 2.55583 22.9925 3.53529 24.2281 4.77188C25.4638 6.00846 26.4437 7.46367 27.1679 9.1375C27.892 10.8113 28.2528 12.5988 28.25 14.5C28.2473 16.4012 27.8861 18.1887 27.1665 19.8625C26.4469 21.5363 25.4675 22.9915 24.2281 24.2281C22.9888 25.4647 21.5336 26.4446 19.8625 27.1679C18.1914 27.8911 16.4039 28.2518 14.5 28.25ZM14.5 25.5C17.5708 25.5 20.1719 24.4344 22.3031 22.3031C24.4344 20.1719 25.5 17.5708 25.5 14.5C25.5 11.4292 24.4344 8.82812 22.3031 6.69687C20.1719 4.56562 17.5708 3.5 14.5 3.5C11.4292 3.5 8.82813 4.56562 6.69688 6.69687C4.56563 8.82812 3.5 11.4292 3.5 14.5C3.5 17.5708 4.56563 20.1719 6.69688 22.3031C8.82813 24.4344 11.4292 25.5 14.5 25.5Z" fill="#8E8EA1"/>
</svg>
