<svg width="32" height="32" viewBox="0 0 32 32" fill="none" xmlns="http://www.w3.org/2000/svg">
<path d="M17.5 25.5H14.5C13.8 25.5 13.2 26.1 13.2 26.8C13.2 27.5 13.8 28.1 14.5 28.1H17.5C18.2 28.1 18.8 27.5 18.8 26.8C18.8 26.1 18.2 25.5 17.5 25.5ZM24.9 22.4H24.1V14.6C24.1 10.5 21.1 7.2 17.2 6.6V5.3C17.2 4.6 16.7 4 16 4C15.3 4 14.7 4.6 14.7 5.3V6.6C10.8 7.2 7.8 10.6 7.8 14.6V22.4H7.2C6.5 22.4 6 23 6 23.7C6 24.4 6.6 25 7.3 25H9.2H23H25C25.7 25 26.3 24.4 26.3 23.7C26.3 23 25.6 22.4 24.9 22.4ZM10.3 22.4V14.6C10.3 11.5 12.8 9 15.9 9C19 9 21.5 11.5 21.5 14.6V22.4H10.3Z" fill="#8E8EA1"/>
</svg>
