<svg width="32" height="32" viewBox="0 0 32 32" fill="none" xmlns="http://www.w3.org/2000/svg">
<path d="M16 12C15.2089 12 14.4355 12.2346 13.7777 12.6741C13.1199 13.1136 12.6072 13.7384 12.3045 14.4693C12.0017 15.2002 11.9225 16.0044 12.0769 16.7804C12.2312 17.5563 12.6122 18.269 13.1716 18.8284C13.731 19.3878 14.4437 19.7688 15.2196 19.9231C15.9956 20.0775 16.7998 19.9983 17.5307 19.6955C18.2616 19.3928 18.8864 18.8801 19.3259 18.2223C19.7654 17.5645 20 16.7911 20 16C20 14.9391 19.5786 13.9217 18.8284 13.1716C18.0783 12.4214 17.0609 12 16 12ZM16 18C15.6044 18 15.2178 17.8827 14.8889 17.6629C14.56 17.4432 14.3036 17.1308 14.1522 16.7654C14.0009 16.3999 13.9613 15.9978 14.0384 15.6098C14.1156 15.2219 14.3061 14.8655 14.5858 14.5858C14.8655 14.3061 15.2219 14.1156 15.6098 14.0384C15.9978 13.9613 16.3999 14.0009 16.7654 14.1522C17.1308 14.3036 17.4432 14.56 17.6629 14.8889C17.8827 15.2178 18 15.6044 18 16C18 16.5304 17.7893 17.0391 17.4142 17.4142C17.0391 17.7893 16.5304 18 16 18Z" fill="#8E8EA1"/>
<path d="M27 15.9998C27.0097 15.2822 26.7617 14.5849 26.3012 14.0345C25.8407 13.484 25.1981 13.1169 24.49 12.9998C24.379 12.6756 24.2488 12.3584 24.1 12.0498C24.4925 11.4704 24.67 10.772 24.6019 10.0756C24.5339 9.37912 24.2245 8.72836 23.7273 8.23592C23.2301 7.74348 22.5764 7.44034 21.8793 7.37895C21.1822 7.31757 20.4856 7.50181 19.91 7.89978C19.6144 7.75246 19.3106 7.62224 19 7.50978C18.8843 6.80826 18.5232 6.17063 17.9811 5.7106C17.4389 5.25058 16.751 4.99805 16.04 4.99805C15.329 4.99805 14.6411 5.25058 14.099 5.7106C13.5569 6.17063 13.1957 6.80826 13.08 7.50978C12.7559 7.62079 12.4387 7.75102 12.13 7.89978C11.555 7.44784 10.8347 7.22153 10.1045 7.26339C9.37434 7.30525 8.68461 7.6124 8.165 8.1271C7.64539 8.64179 7.3317 9.32857 7.2829 10.0583C7.23411 10.7881 7.45357 11.5105 7.90003 12.0898C7.75126 12.3984 7.62103 12.7156 7.51003 13.0398C6.8085 13.1555 6.17088 13.5166 5.71085 14.0588C5.25082 14.6009 4.99829 15.2888 4.99829 15.9998C4.99829 16.7108 5.25082 17.3987 5.71085 17.9408C6.17088 18.4829 6.8085 18.8441 7.51003 18.9598C7.62103 19.2839 7.75126 19.6011 7.90003 19.9098C7.48071 20.4877 7.28124 21.1962 7.33748 21.9079C7.39371 22.6197 7.70197 23.2881 8.20684 23.793C8.71171 24.2978 9.38009 24.6061 10.0919 24.6623C10.8036 24.7186 11.5121 24.5191 12.09 24.0998C12.3987 24.2485 12.7159 24.3788 13.04 24.4898C13.1557 25.1913 13.5169 25.8289 14.059 26.289C14.6011 26.749 15.289 27.0015 16 27.0015C16.711 27.0015 17.3989 26.749 17.9411 26.289C18.4832 25.8289 18.8443 25.1913 18.96 24.4898C19.2842 24.3788 19.6014 24.2485 19.91 24.0998C20.4879 24.5191 21.1964 24.7186 21.9082 24.6623C22.62 24.6061 23.2884 24.2978 23.7932 23.793C24.2981 23.2881 24.6063 22.6197 24.6626 21.9079C24.7188 21.1962 24.5194 20.4877 24.1 19.9098C24.2488 19.6011 24.379 19.2839 24.49 18.9598C25.1912 18.8437 25.8285 18.4824 26.2881 17.9403C26.7478 17.3982 27.0001 16.7105 27 15.9998ZM24 16.9998H23.74C23.5129 16.9926 23.2902 17.063 23.1084 17.1993C22.9266 17.3356 22.7967 17.5298 22.74 17.7498C22.5805 18.3836 22.3278 18.9902 21.99 19.5498C21.8794 19.7408 21.8351 19.9631 21.864 20.182C21.893 20.4009 21.9935 20.6041 22.15 20.7598L22.33 20.9498C22.4632 21.0238 22.5776 21.1272 22.6647 21.2521C22.7518 21.3771 22.8092 21.5203 22.8325 21.6708C22.8559 21.8213 22.8445 21.9752 22.7993 22.1206C22.7541 22.2661 22.6763 22.3993 22.5718 22.5101C22.4673 22.6209 22.3388 22.7063 22.1963 22.7599C22.0537 22.8135 21.9008 22.8339 21.7491 22.8194C21.5975 22.8049 21.4512 22.7559 21.3214 22.6763C21.1916 22.5966 21.0816 22.4884 21 22.3598L20.81 22.1798C20.6536 22.0081 20.4423 21.8963 20.2124 21.8634C19.9825 21.8306 19.7483 21.8788 19.55 21.9998C18.9905 22.3375 18.3839 22.5903 17.75 22.7498C17.53 22.8065 17.3359 22.9364 17.1995 23.1182C17.0632 23.2999 16.9928 23.5227 17 23.7498V23.9998C17 24.265 16.8947 24.5194 16.7071 24.7069C16.5196 24.8944 16.2652 24.9998 16 24.9998C15.7348 24.9998 15.4805 24.8944 15.2929 24.7069C15.1054 24.5194 15 24.265 15 23.9998V23.7398C15.0072 23.5127 14.9369 23.2899 14.8005 23.1082C14.6642 22.9264 14.47 22.7965 14.25 22.7398C13.6162 22.5803 13.0096 22.3275 12.45 21.9898C12.2947 21.9017 12.1186 21.8568 11.94 21.8598C11.6777 21.8609 11.4263 21.965 11.24 22.1498L11.05 22.3298C10.9761 22.4629 10.8726 22.5774 10.7477 22.6645C10.6227 22.7516 10.4795 22.809 10.329 22.8323C10.1785 22.8556 10.0246 22.8442 9.87919 22.799C9.73374 22.7539 9.60053 22.676 9.48974 22.5715C9.37894 22.467 9.29348 22.3386 9.23988 22.196C9.18628 22.0534 9.16595 21.9005 9.18045 21.7489C9.19494 21.5973 9.24388 21.451 9.32353 21.3211C9.40318 21.1913 9.51143 21.0814 9.64003 20.9998L9.82003 20.8098C9.99168 20.6533 10.1035 20.442 10.1364 20.2121C10.1692 19.9822 10.121 19.748 10 19.5498C9.66228 18.9902 9.40952 18.3836 9.25003 17.7498C9.19334 17.5298 9.06342 17.3356 8.88165 17.1993C8.69989 17.063 8.47712 16.9926 8.25003 16.9998H8.00003C7.73481 16.9998 7.48046 16.8944 7.29292 16.7069C7.10539 16.5194 7.00003 16.265 7.00003 15.9998C7.00003 15.7346 7.10539 15.4802 7.29292 15.2927C7.48046 15.1051 7.73481 14.9998 8.00003 14.9998H8.26003C8.48712 15.007 8.70989 14.9366 8.89165 14.8003C9.07342 14.664 9.20334 14.4698 9.26003 14.2498C9.41952 13.616 9.67228 13.0093 10.01 12.4498C10.1207 12.2587 10.165 12.0364 10.136 11.8175C10.1071 11.5987 10.0065 11.3955 9.85003 11.2398L9.67003 11.0498C9.5062 10.8585 9.4206 10.6124 9.43032 10.3607C9.44004 10.1091 9.54437 9.87032 9.72247 9.69222C9.90056 9.51413 10.1393 9.40979 10.391 9.40007C10.6427 9.39035 10.8887 9.47596 11.08 9.63978L11.27 9.81978C11.4258 9.97629 11.6289 10.0769 11.8478 10.1058C12.0667 10.1347 12.289 10.0904 12.48 9.97978C13.0396 9.64204 13.6462 9.38928 14.28 9.22978C14.5 9.1731 14.6942 9.04317 14.8305 8.86141C14.9669 8.67964 15.0372 8.45688 15.03 8.22978V7.99978C15.03 7.73457 15.1354 7.48021 15.3229 7.29268C15.5105 7.10514 15.7648 6.99978 16.03 6.99978C16.2952 6.99978 16.5496 7.10514 16.7371 7.29268C16.9247 7.48021 17.03 7.73457 17.03 7.99978V8.25978C17.0228 8.48688 17.0932 8.70965 17.2295 8.89141C17.3659 9.07317 17.56 9.2031 17.78 9.25978C18.4139 9.41928 19.0205 9.67204 19.58 10.0098C19.7711 10.1204 19.9934 10.1647 20.2123 10.1358C20.4311 10.1069 20.6343 10.0063 20.79 9.84978L21 9.63978C21.0897 9.5351 21.2 9.45008 21.3241 9.39006C21.4481 9.33004 21.5833 9.29631 21.721 9.29099C21.8587 9.28567 21.996 9.30887 22.1244 9.35915C22.2527 9.40942 22.3692 9.48568 22.4667 9.58313C22.5641 9.68059 22.6404 9.79714 22.6907 9.92546C22.7409 10.0538 22.7641 10.1911 22.7588 10.3288C22.7535 10.4666 22.7198 10.6017 22.6598 10.7258C22.5997 10.8498 22.5147 10.9601 22.41 11.0498L22.23 11.2398C22.0622 11.3869 21.9483 11.5859 21.9066 11.8052C21.865 12.0244 21.8978 12.2514 22 12.4498C22.3378 13.0093 22.5905 13.616 22.75 14.2498C22.8067 14.4698 22.9366 14.664 23.1184 14.8003C23.3002 14.9366 23.5229 15.007 23.75 14.9998H24C24.2652 14.9998 24.5196 15.1051 24.7071 15.2927C24.8947 15.4802 25 15.7346 25 15.9998C25 16.265 24.8947 16.5194 24.7071 16.7069C24.5196 16.8944 24.2652 16.9998 24 16.9998Z" fill="#8E8EA1"/>
</svg>
